<?xml version="1.0" encoding="UTF-8"?>
<svg xmlns="http://www.w3.org/2000/svg" width="1024" height="1024" viewBox="0 0 1024 1024">
  <defs>
    <linearGradient id="g2" x1="0" x2="1">
      <stop offset="0" stop-color="#56ccf2"/>
      <stop offset="1" stop-color="#2f80ed"/>
    </linearGradient>
  </defs>
  <rect width="100%" height="100%" rx="64" fill="rgba(5,8,22,0.6)" />
  <g transform="translate(160,160) scale(0.7)">
    <rect x="160" y="220" width="400" height="220" rx="28" fill="url(#g2)" opacity="0.95"/>
    <path d="M300 160 C340 120 420 120 460 160 C480 180 480 220 460 240 L360 320 L260 240 C240 220 240 180 260 160 Z" fill="#fff" opacity="0.08"/>
    <g transform="translate(110,520)">
      <path d="M60 0 C120 0 150 40 150 80 C150 120 120 160 60 160 C0 160 -30 120 -30 80 C-30 40 0 0 60 0 Z" fill="#fff" opacity="0.85"/>
    </g>
  </g>
</svg>
