<?xml version="1.0" encoding="UTF-8"?>
<svg xmlns="http://www.w3.org/2000/svg" width="1024" height="1024" viewBox="0 0 1024 1024">
  <defs>
    <linearGradient id="g" x1="0" x2="1">
      <stop offset="0" stop-color="#00cea8"/>
      <stop offset="1" stop-color="#bf61ff"/>
    </linearGradient>
  </defs>
  <rect width="100%" height="100%" rx="64" fill="rgba(5,8,22,0.6)" />
  <g transform="translate(128,128) scale(0.75)">
    <path d="M200 100 C120 100 60 160 60 240 L60 360 C60 440 120 500 200 500 L320 500 C400 500 460 440 460 360 L460 320 L360 320 L360 360 C360 400 330 420 300 420 L220 420 C180 420 160 390 160 360 L160 240 C160 210 180 180 220 180 L320 180 C360 180 400 200 420 240 L520 340 L520 240 C520 160 460 100 380 100 L200 100 Z" fill="url(#g)" opacity="0.95"/>
    <circle cx="360" cy="180" r="28" fill="#fff" opacity="0.9"/>
  </g>
</svg>
